/* XPM */
static char *result[] = {
/* columns rows colors chars-per-pixel */
"50 50 124 2 ",
"   c #040503",
".  c #0C0404",
"X  c #060A05",
"o  c #080D07",
"O  c #0B0A09",
"+  c #130505",
"@  c #1B0707",
"#  c #110807",
"$  c #130A0A",
"%  c #1C0B0B",
"&  c #0D110C",
"*  c #13120E",
"=  c #1C120F",
"-  c #141312",
";  c #1B1414",
":  c #151B16",
">  c #1A1A16",
",  c #1C1A19",
"<  c #230D0D",
"1  c #290E0E",
"2  c #241313",
"3  c #2A1414",
"4  c #251A1A",
"5  c #2D1919",
"6  c #311616",
"7  c #321B1C",
"8  c #1F211F",
"9  c #2C201E",
"0  c #381F21",
"q  c #242422",
"w  c #2C2323",
"e  c #262925",
"r  c #2A2B26",
"t  c #2B2C2A",
"y  c #352323",
"u  c #392323",
"i  c #332C2C",
"p  c #3B2C2C",
"a  c #2E312E",
"s  c #2F3230",
"d  c #353433",
"f  c #3B3434",
"g  c #373837",
"h  c #373838",
"j  c #3C3B3A",
"k  c #423333",
"l  c #433C3C",
"z  c #4B3E3E",
"x  c #3F433F",
"c  c #44403F",
"v  c #444242",
"b  c #4C4444",
"n  c #4C4847",
"m  c #4A4748",
"M  c #4C4C4B",
"N  c #524546",
"B  c #534B4B",
"V  c #5A4E4E",
"C  c #4F504E",
"Z  c #554F50",
"A  c #4F5251",
"S  c #545453",
"D  c #5C5252",
"F  c #595957",
"G  c #585758",
"H  c #565858",
"J  c #5B5C5C",
"K  c #615454",
"L  c #635D5D",
"P  c #64605F",
"I  c #5E6160",
"U  c #646363",
"Y  c #6A6565",
"T  c #676867",
"R  c #686668",
"E  c #666969",
"W  c #6D6C6C",
"Q  c #706565",
"!  c #706768",
"~  c #736C6C",
"^  c #786E6E",
"/  c #6E706F",
"(  c #70706F",
")  c #6F7171",
"_  c #757575",
"`  c #797575",
"'  c #767877",
"]  c #787877",
"[  c #777778",
"{  c #777878",
"}  c #7C7C7C",
"|  c #837F7F",
" . c #807F80",
".. c #7F8080",
"X. c #838383",
"o. c #8A8686",
"O. c #878987",
"+. c #898887",
"@. c #868989",
"#. c #8A8B8B",
"$. c #928D8D",
"%. c #908F91",
"&. c #8E9191",
"*. c #939494",
"=. c #999696",
"-. c #999798",
";. c #959999",
":. c #9C9C9C",
">. c #A09FA0",
",. c #9EA2A2",
"<. c #A3A4A4",
"1. c #A8A6A6",
"2. c #A7A8A7",
"3. c #A6A8A8",
"4. c #ABACAC",
"5. c #B0AFAF",
"6. c #B0AFB0",
"7. c #AEB1B1",
"8. c #B2B3B3",
"9. c #B6B9B9",
"0. c #BABCBC",
"q. c #BEC0C0",
"w. c #C1C2C2",
"e. c #C8C9CA",
/* pixels */
"0.<.u D *.S _ 9.4.3.4.3.4.4.:._ y B *.G E 8.4.3.3.4.4.4.3.4.4.1.4.3.4.4.3.4.4.3.3.8.:.} p k =.R U 4.",
"8.:.7 n #.F _ 4.<.<.<.<.<.<.:.} 4 z #.J W 4.<.<.>.<.<.<.<.>.<.<.<.<.>.<.<.>.<.<.<.1.-.@.y p @.R U <.",
"*.] & r F [ } }  .} ..} } ] <.4.> e U [  . . .} | } } } }  .} } X.}  . .} } | } | [ *.9.t > S (  . .",
"#._ ; b #.} } } { }  . .| _ *.-.; e J _ X.] } } |  .X. .} ]  .} ] }  .] } } | } ] _ #.<.q e #.X.} } ",
"#.[ 1 Q w. ._ } } } }  . .{ X.[ - e I _ } } } }  . .}  .X.} } } } }  .} } }  ...} } } .., d w.$._  .",
":.#.+ N <.9.4.@.&...S C J %.} S $ j *.8.8.@.#.@.H A G A _ -.H Y -.I J &.*.X.A / *.#.*.*.q t :.8.8.#.",
"W G $ i P ] _ L Y D f i j Y B s # i U ] ` G L G f f f p M I s j ! h d P U S p B Y L P U , 4 F [ | L ",
"- O $ + + . O 1 % @ < < < % # . # O . O . # . . 3 2 < 1 $ o O O < . O < O o 1 1 2 1 @ . + O O O % < ",
"Y Y ~ j # U Y l [ *.o.o.@.o.o.X.X.O.o.W b O M W l ~ $.#.o.X.X.o.+.+.X.+.@. .R z 3 M M v } $.X.@.@.#.",
"%.#.:.Z # ] @.J :.9.4.7.7.7.8.7.8.8.8.3._ O Y &.J &.9.7.7.6.8.8.7.6.8.7.8.6.,.V 3 J E R 3.0.6.7.7.4.",
"} } @.B 3 v U O.] [ ] ] { ] { { ] _ _ 8.$.1 k J X. .{ ] ] ] [ [ ] ] ] ] _  .0.Q 1 m R X.] [ ] ] [ } ",
"X...#.B 1 } #.} } } ] } ] } ] } } ] [ >.] + U *.} } ] } } ] } ] ] } } ] ]  .:.M $ X.#. .} ] ] } ] } ",
"X.} #.n < <.7._ }  .} }  .} } ..}  .} X.F   ..0.} { } } } } | } }  .} } .. .X.g & 4.2._ .. .} } | } ",
" .} #.v O ,.2.W } } } X.X.}  .@.X.X.| S d   ..8._ [ } }  .X.X.X.] ..@.X.} } #.j & <.,.~ ] } O.} } } ",
"@.@.-.M O #.4.>.#.X.#.) E @.{ I I _ #.{ S   _ 4.,.%...@._ U U ) #./ I U ] #.;.c # &.<.<.#.} I } #.+.",
"X.} #.m # U &.8.@.] X.G m X.Y j x F X.&.Y . S #.4.%.[ X.U x j H #.H j x Y O.+.l % R *.4.#.R j T X.} ",
"0 3 - O + $ ; , 4 6 2 < < 2 < < % 1 2 ; O   $ ; : 4 0 2 < < < < 2 1 < < < 2 - O . # > 5 - % 6 3 2 3 ",
"D V m b l O = l p k D K D V D D D V V B b f $ O f f p Z D D D V V V D D V B n B B l 9 + f v p B D D ",
"9.9.q.4.X., h <.U R q.0.9.9.9.9.9.0.9.q.7.%.w > -._ J 8.0.0.9.9.9.9.9.9.9.9.9.w.9.;.S O X.;.A :.w.9.",
"o. .} :.6.y w J ) } X.X.X. .X.X.X.X. .} @.9.b 2 S W }  .X.X. . .X.X.X.X.X.X.X. . .9.(   ; d ..X.X.X.",
"} [ / *.4.u p / } X._ [ { ] ] ] ] ] [ _ X.7.b 3 R } X.[ [ ] ] _ ] [ [ _ _ _ _ _ ] 6.W   t B @.} _ ] ",
" . .} X.} 3 N e.+.) } X.X.O.X.X.X.X. .o. .X.e 8 9.-./ } } }  . .] X.X.} X.X.X.@. .@.A O <.q._ ] } X.",
"+.+.X.#.#., j <.<.>.+.E F J J I I J J G R *.s : *.4.>.o.O.+.J R #.U I #.W H I J J *.G O X.4.3.#...@.",
") ( W _ ( ; w W $.=.( M d j j l j j l d m ] r & U #.-.( W ( h m } m j { B d j d f } M . B } :.} Y ~ ",
"5 1 1 @ . + . . % 1 1 3 < + % ; + % 7 3 < . . . . @ < 1 < < < < 1 1 < 1 @ $ 2 % + @ + . . + < < % 2 ",
"^ ~ ~ R P ~ W L Y Q Q ~ ! S 9 @ B B f Y ^ L Q ~ Y Y Q ~ ~ ~ ~ ~ ~ ~ ( ~ L l + p F i b _ Y Y Y ~ ! ~ ",
"7.7.7.8.8.8.8.8.8.7.7.9.8.:.v + O.} F <.0.8.8.7.8.8.8.7.7.7.8.8.8.7.8.9.<.' + M *.I X.0.8.8.7.8.8.8.",
"o.......| X. .| X.} X.} o.0.J X M T X. . .X. .| | } } X.X.....}  .} } } <.:.& r J } | X.} |  ... .X.",
" .}  .} } X.} ] } } X.} ..<.M O _ O.] ] ] } } X. .} ] ] } } X.} ] } ..] *.O.X m $.} } ] } } { ] ] } ",
" .} }  .} X.} } ] } } } } @.h & 4.<._ } ] ] } X.} } } } } }  .} } } }  .} Y   U q.} _ } ] } } } } } ",
"&.#.J G F S W *.*.X.C _ *.:.B 2 X.<.9.9.4.*.R A H _ &.*._ A A E ;.R S A ..O.. n <.0.<.+.#.#.#.#.#.#.",
"W L d s d t v U J S d B Y I k 6 Z ~ |  .[ J j t i M U L M f i b Y j t f S S @ i L | ` J L L L L L L ",
"3 % O O O O + + . # 3 1 %   $ 3 % % $ % # O O   O + + . % 3 1 < % O O 1 # O + + O $ < 3 < < < @ % < ",
"#.o.X.O.X.~ l # G W v ~ $.@.o.+.o.o.o.o.O.@.o.X.Y i % J Z c  .$.o.X.X.o.X.@.X.@. .W b 1 L W l ` $.@.",
"7.7.8.8.5.4.Y O W %.J &.0.8.8.4.7.7.7.7.4.8.8.6.<.l $ *.O.T 3.8.7.8.8.4.6.8.7.8.5.<.P % [ @.L -.0.7.",
"} ] _ _ _ 0. .< l I @.} [ ] ] ] ] ] { ] [ _ _ X.0.M & <.0.7.} _ [ ] ] ` [ [ ] _ [ 0._   x U X.} { ] ",
"} } ] ] ] :.~ @ ^ *.} ] ] } } } } } ..} } ..} X.:.v & / #.*.} { ] } ] ] [ } { [ ] ,.J . { *.] ] ] ] ",
"X.X. . . .@.L % #.9. .}  ...} ] ..} { { ] ] ] } O.j * M T X.} } | }  .} }  .}  . .@.A $ ;.9.}  .} | ",
"#.#.+.#.#.;.Y < W ,.0.,.@.%.R M #.{ m H H A M J ;.n 5 } <.9.#.@.O.+.+.+.#.#.#.#.@.*.L < _ >.q.*.X.#.",
"N b j j j M k @ p B S B b D k e V j , , q y 9 i n u 1 l D L N N V b b B l j j j j G k @ k B L B l N ",
"0 5 O O & 3 7 u 7 2 X = 6 3 4 7 5 2 - - > 7 7 7 3 7 y 5 2 1 5 3 3 3 3 5 - & O O O 3 6 u 5 3 1 2 3 5 ",
"<.<.2.<.-.:.:.:.>.:.:.#.Y 3 B X.A W <.:.:.:.>.:.:.:.:.:.:.:.O.N O L _ l } <.:.4.<.4 N 9.<.3.<.<.<.<.",
"<.:.#.>.9.4.4.7.4.4.9.=.~ 3 D %.H { 9.8.7.4.7.4.7.4.4.7.8.4.,.} N o.*._ -.9.7.8.-.3 B 7.#.%.:.:.:.:.",
"X.} v [ 8.3.3.3.1.4.4.*.Y 3 V #.B _ 8.<.2.2.2.2.<.4.2.1.4.2.4.5.9.6.4.9.4.<.4.*.W 3 z #.S H } ] _ ] ",
"F J _ } O.X.X.X.X.X...<.*.* d W _  .@.X.X.X.X.X.O.X.X.X.X. .X.X.X.X.X.X. .X.} <.<., e J _ } O.X.X.} ",
"T W X. .' ] ] ] ] ] ( :.*.& r I X.X._ _ } ] ] [ [ _ _ _ ' _ _ ' _ [ _ _ [ [ / -.<.; t ( } ../ W _ } ",
"9.5.] ] } } ..X.X.X.} X._ & a I [ }  . . .X.X.X.X.| } X...} ....} } | X. .} } X.[ & A e.+.U j j M } ",
"*.*.2.*...#.' H H Y #.) C # v @.3.;...@.} G J F G ] @.J / #.I E +.#.} S ) +.X.%. .- l ,.3.;.W / _ X.",
"R W :.o.! ] P f j m ] S d + l | -.+.W _ U j j j h L ) h S } j m ] _ U d F _ ( ] ~ - i W *.=._ [ [ ~ ",
"4 4 ; 5 y y y y u y u 5 4 2 > 2 2 2 3 ; 3 y y y u q : : 9 u : 4 u , , u u y u 5 ; 4 4 : 7 y 9 y y u "
};
