/* XPM */
static char *result[] = {
/* columns rows colors chars-per-pixel */
"50 50 45 1 ",
"  c #030303",
". c #0C0C0C",
"X c #0F1111",
"o c #141414",
"O c #181817",
"+ c #171718",
"@ c #171818",
"# c #1B1B1B",
"$ c #232323",
"% c #282728",
"& c #2B2B2B",
"* c #343434",
"= c #383837",
"- c #373738",
"; c #3C3C3C",
": c #444444",
"> c #484847",
", c #4B4B4B",
"< c #4F4F50",
"1 c #545454",
"2 c #575758",
"3 c #5C5C5C",
"4 c #5F5F60",
"5 c #605F60",
"6 c #646464",
"7 c #676769",
"8 c #6C6C6D",
"9 c #6F6F70",
"0 c #747474",
"q c #7B7B7B",
"w c #7F7F80",
"e c #7F8080",
"r c #838383",
"t c #878788",
"y c #8C8C8C",
"u c #939393",
"i c #9D9D9D",
"p c #A3A3A3",
"a c #ABABAB",
"s c #AFAFB0",
"d c #B4B4B4",
"f c #B8B8B7",
"g c #BCBCBC",
"h c #C1C1C1",
"j c #CACACA",
/* pixels */
"hhhhhhhhhhhhhhhhhhhhhhhhhhhhhhhhhhhhhhhhhhhhhhhhhh",
"hhhghhhhhhhhhhhhhhhhhhghhhhhhghhhhhhhhhhhhhhhhhhhh",
"hhhhhhhhghhhhhhghhhhhhhhhhhhhhhhhhhhhhhhhhhhghhhhh",
"hhhhhhhhhhhhhhhhhhhhhhhhhhhhhhhhhhhghhhhhhhhhhhhhh",
"hhhhhhhhhhhhhhhhhghhhhhhhhhhhhhhghhpidhhghhhhhhhhh",
"hghhhghhhhhhhhhhhhhhhhhhhhhhhhgpiaitqqahhhhhhhhhhh",
"hhhhhhhhhhhhhhhhhhhhhghhhhhfggpyqq06632yjhhhhhhhgh",
"hhhhhhhhhhhghhhhhhhhhhhhhhduuuqrq76>;::;qarahhhhhh",
"hhhhhhhhhhhhghhhhhhhhhhhhdurq0227651-$%&$>7rhhhhhh",
"hhhhghhhhhhhhhhhhhhhhhhhsyrqq06:=<1,:&ooOO,ighhhhh",
"ghhhhhhhhhhhhhhhhhhhhhhhp0wq0862*%=;;*$XXooqjhhhhh",
"hhhhhhhhghhhhhhhhhhhhhhhhq2q8632,&#$&%$OXX.$tjhhhh",
"hhhhhhhhhhhhhhhhhhhhhhhhhg2,q621,;$oO###Oooo*pjhhh",
"hhhhghhhhhhhhhhhhhhhhhhhhhd>>03,::*O.oOOO#o#%3dhhh",
"hhhhhhhhhhhhghhhhhhhhhhhhhhs:,8,;=*%O..ooO$$&&pjhh",
"hhhhhhhhhhhhhhhhhhhhhhhhhhhjp::1;*%%#o.ooo#%%5fhhh",
"hhhhghhhhhhhhhhhhhhghhhhhhhhhi0y1&$$##o.oO#%2fhhhh",
"hhhhhhhhhhhhhhhhhhhhghhhhhhhhjjju;$##oO#oo$%<sjhhh",
"hhhhhhhhhhhhhhhhhhhhhhhhhhhhhjjgi5&OOOo##o$%&ujhhg",
"ghhhhhhhhhhhhghhhhhhhhhhhhhhjjdi7<;$ooOo$$#$8ghhhh",
"hhhhhhhhhhghhhhhhhhhhhhhhhjjjdu67u6*#ooOO%%8ghhhhh",
"hhhhhhhhhhhhhhhhhhhhhhhhhhjhdy68dja5*Oo#O$;pjhhhhh",
"hhhhhhhhhhhhhhhhhhhghhhhhjjay69dhhja5&oo#$$0jhhhhh",
"hhhhhhhhhhhhhhhhhhhhhhhhjhay60fhhhhhs5%o$#*ihhhhhh",
"hhhhhhhhhfhhhhhhhhhhhhhjjat60dhhhhhhhd7#.*uhhhhhhh",
"hhhhhhhhp0rhhhhhhhhhhhhhat60djhhhhhhhhh0>ujhhhhhhh",
"hhhhhhhp0822dhhhhhhhhjhat60fhhhhhhhhhhjhfhhhhhhhhh",
"ghhhhhp98qq::ajhhhhhhhar40dhhhhhhhghhhhhhhhhhhhghh",
"hhhhhhu900qq;;pjhhhhfpq30dhhhhhhhhhhhhhhhhhhhhhhgh",
"hhhhhja0qqqe8*-pjhgdiq30djhhhhhhhhhhhhhhhhhhhhhhhh",
"hhhhhfr3qrqq06&-ifau020dhhhhhhhhhhhhhhhhhhhhhhhhhh",
"hhhhge665qq096>;yir719djhhhhhhhhhhhhhhhhhhhhhhhhhh",
"hhhhi78063q963<;605<9fjhhhhhhhhhhhghhhhhhhhhhhhhhh",
"hhhjsq0qe32851<;&:,7ghhhhhhhhhhhhhhhhhhhhhhhhhhhhh",
"hhhhd00qq0<,3,:=%#*,pjhhghhhhhhhhhhhhhhhhhhhhhhhhh",
"hhhf036q096;:>*&%#o#:phhhhhhhhhhhhhhhhhgghhhhhghhh",
"hhja5866863,&**$##Oo#>ahhhhhhhhghhhhhhhhhhhhhhhhhh",
"hhhfr90423<>*$&$#OOoo$,shhhhhhhhhhhhhhhhhhhhhhhhhh",
"hhhha098,>>=&$O$#oooXX#<gjhhhhhhhhhhhhhhhhhhhhhhhh",
"hhhhhi731***$$OXOoXXX.Xo5hhhhhhhhhhghhhhhhghhhhhhh",
"hhhhhhy1>*$$$OOo.oXXX...Xyjhhhhhhhhhhhhhhhhhhhhhhg",
"hhhhhhjr*&$OOOXX...X..X $ijhhhhhhhhhhhhhhhhhhhhhhh",
"hhhhhhha3#OoXoX..  ... $uhhhhhhhhhhhhghhhhhhhhhhhh",
"hhhhhhgu2;#...o...  >=%ujhhhhhhghhhhhhhhhghhhghhhh",
"hhhhhhha0drO . .X  2hfahhhhhhhhhhhhhhhhhhhhhhhhhhh",
"ghhhhhhhhhjy&  >y,3gjhjhhhhhhhhhhghhhhhhhhhhhhhhhh",
"hhhhhhhhhhhja12djhhhhhhhhhhhhhhhhhhhhghhhhhhhhhhhh",
"hhhhhhhhhhhhhhghhhhhhhhhhhhhhhhhhhhhhhhhhhghhhhhhh",
"hhhghhhhhhhhhhhhhhhhhhhhhhhhhhhhhhhhghhhhhhhhhhhhh",
"hhhhhhhhhhhhhhhhhhghhhhhhhhhghhhhhhhhhhhhhhhhhghhh"
};
