/* XPM */
static char *f3c96f2cdba74e13e46c87ab8cfef1ef6t85c53EhDjmk2Ab[] = {
/* columns rows colors chars-per-pixel */
"50 50 90 1 ",
"  c #140000",
". c #150000",
"X c #1F0000",
"o c #200000",
"O c #210000",
"+ c #230101",
"@ c #270000",
"# c #270101",
"$ c #270202",
"% c #280000",
"& c #290000",
"* c #290101",
"= c #2B0101",
"- c #2A0202",
"; c #2B0202",
": c #2C0000",
"> c #2C0202",
", c #2D0303",
"< c #2E0202",
"1 c #2E0303",
"2 c #2F0303",
"3 c #2F0404",
"4 c #2C0B0B",
"5 c #2E0C0C",
"6 c #300303",
"7 c #300404",
"8 c #310404",
"9 c #271616",
"0 c #2C1B1B",
"q c #331212",
"w c #351515",
"e c #3B1919",
"r c #222222",
"t c gray14",
"y c #2A2A2A",
"u c #2C2D2D",
"i c #392828",
"p c #431E1E",
"a c #432121",
"s c #4B2929",
"d c #512F2F",
"f c #403030",
"g c #4D3B3B",
"h c #523030",
"j c #533131",
"k c #543232",
"l c #553232",
"z c #553333",
"x c gray25",
"c c #444545",
"v c #4B4E4E",
"b c #4F5454",
"n c #634747",
"m c #635151",
"M c gray38",
"N c #666868",
"B c #776565",
"V c #867474",
"C c #887676",
"Z c #8B7979",
"A c #8C7D7D",
"S c #8D7D7D",
"D c #8E7C7C",
"F c #8F7D7D",
"G c #917F7F",
"H c #868686",
"J c #8D8F8F",
"K c #8D9090",
"L c #A7A7A7",
"P c #B1B4B4",
"I c #C1C1C1",
"U c gray77",
"Y c #CACACA",
"T c #CCCFCF",
"R c gray81",
"E c #CCD0D0",
"W c #CFD2D2",
"Q c #CFD3D3",
"! c #D0D0D0",
"~ c LightGray",
"^ c #D5D9D9",
"/ c #D5DADA",
"( c #D8DFDF",
") c #DBDEDE",
"_ c #DBDFDF",
"` c #DCDFDF",
"' c #D8E0E0",
"] c #DCE0E0",
"[ c #DFE2E2",
"{ c #DFE3E3",
/* pixels */
"33333333333333333333333333333333333333333333333333",
"33333333333333333333333333333333333333333333333333",
"33333333333733333333333333333333333733333333337,33",
"33333333333733333333333733333333333733333333337633",
"33337$ooooooooooooooo$oooooooooooooooooooooooo;,33",
"3333$nSVVVVVCVCVVVVVVVVVCVVVVVVCVVVVCVCCVVVVCSp;33",
"3333oS'EEEEERTEEEEEETTEERTEEEERTEEEERTEEEEEER(j$33",
"3337oVEIIIIIIIIIIIIIIIIIIIIIIIIIIIIIIIIIIIIIITd;33",
"3333oVEIIIIIIIIIIIIIIIIIIIIIIIIIIIIIIIIIIIIIIRd$33",
"3333XG{~~~~~~~~~~~~~~~~~~~~~~~~~~~~~~~~~~~~Q~[j;33",
"3333,icxxxxxxxxxxxxxxxxxxxxxxxxxxxxxxxxxxxgxuvq,33",
"3333$mKHHHHHHHHHHHHHHHHHHHHHHHHHHHHHHHHHHHHHJKp;33",
"3333oZ/YYYYYYYYYYYYYYYYYYYYYYYYYYYYYYYYYYYYYR_j$33",
"3333oVEIIIIIIIIIIIIIIIIIIIIIIIIIIIIIIIIIIIIIPTd;33",
"3333oVRIIIIIIIIIIIIIIIIIIIIIIIIIIIIIIIIIIIIIIRd$33",
"3333oS_RRRRRRRRRRRRRRRRRRRRRRRRRRRRRRRRRREEER`j$33",
"3333,0uuyyyyyyyyyyyyyyyyyyyyyyyyyyyyyyyyyyyyyu4,33",
"3333$BPLLLLLLLLLLLLLLLLLLLLLLLLLLLLLLLLLLLLLLPs;33",
"3333oVEUUUUUUUUUUUUUUUUUUUUUUUUUUUUUUUUUUUUUI~d$33",
"3377oVEIIIIIIIIIIIIIIIIIIIIIIIIIIIIIIIIIIIIIIRd$33",
"3333oCRIIIIIIIIIIIIIIIIIIIIIIIIIIIIIIIIIIIIIIEd$33",
"3333oVTIIIIIIIIIIIIIIIIIIIIIIIIIIIIIIIIIIIIIIRd;33",
"3333,9trrrrrrrrrrrrrrrrrrrrrrrrrrrrrrrrrrrrrrt4333",
"3333oVEIIIIIIIIIIIIIIIIIIIIIIIIIIIIIIIIIIIIIITs;33",
"3333oVEIIIIIIIIIIIIIIIIIIIIIIIIIIIIIIIIIIIIIITs;33",
"3333oVEIIIIIIIIIIIIIIIIIIIIIIIIIIIIIIIIIIIIIIRj$33",
"3333oV~UUUUUUUUUUUUUUUUUUUUUUUUUUUUIUUUUUUUUUEd$33",
"3333$BPLLLLLLLLLLLLLLLLLLLLLLLLLLLLLLLLLLLLLLPs;33",
"333330uyyyyyyyyyyyyyyyyyyyyyyyyyyyyyyyyyyyyyyy5,33",
"3333XS_RRRRRRRRRRRRRRRRRRRRRRRRRRRRRRRRR~RRRR_j;33",
"3333oVEIIIIIIIIIIIIIIIIIIIIIIIIIIIIIIIIIIIIIITd$33",
"3337oVEIIIIIIIIIIIIIIIIIIIIIIIIIIIIIIIIIIIIIITd;33",
"3333XZ/YYYYYYYYYYYYYYYYYYYYYYYYYYYYYYYYYYYYYY/j$33",
"3333;mJHHHHHHHHHHHHHHHHHHHHHHHHHHHHHHHHHHHHHHKa;33",
"33336icxxxxxxxxxxxxxxxxxxxxxxxxxxxxxxxxgxxxxxcq,33",
"3333$H{~~~~~~~~~~~~~~~~~~~~~~~~~~~~~~QQ~~~~~~[j$33",
"3333oVEUIIIIIIIIIIIIIIIIIIIIIIIIIIIIIIIIIIIIITd$33",
"3333oV~PIIIIIIIIIIIIIIIIIIIIIIIIIIIIIIIIIIIIITs;33",
"3333oG_~RR~RRR~RRRR~RR~R~EE~~E~EEE~~E~RRR~RR~`z;33",
"3333;gNMMMMMMMMMMMMMMMMMmNMMMMmNMMMMMMMMMMMMMNe;33",
"3333,gNmMMMMMMMMMMMMMMMMMMMMMMNmNmMMMMNmMMMMMNe;33",
"3333oH{~R~RR~RRRR~RRR~RRR~~E~EE~E~E~~EE~RR~RR_j$33",
"3373oVEIIIIIIIIIIIIIIIIIIIIIIIIIIIIIIIIIIIIIPTd;33",
"3377oVEIIIIIIIIIIIIIIIIIIIIIIIIIIIIIIIIIIIIIURd$33",
"3333oG{~~~~~~~~~~~~~~~~~~~~~~~~~~E~~~~~~~~~~^{z;33",
"3333,fbvvvvvvvvvvvvvvvvvvvvvvvvvbvvbvvvvvvvvvbw633",
"33337o............................  ..........;633",
"33337778888777778888877777777777777388888877776,33",
"33333333333333333333333333333333733333333333333333",
"33333333333333333333333333333333333333333333333333"
};
