/* XPM */
static char *_eadf71526824b72a5c74f308d284c51MfpofzKJzreCyK0p[] = {
/* columns rows colors chars-per-pixel */
"50 50 240 2 ",
"   c #04060B",
".  c #06090D",
"X  c #0A0B0D",
"o  c #060607",
"O  c #140F0C",
"+  c #060A13",
"@  c #0B0D13",
"#  c #080713",
"$  c #110F16",
"%  c #0E1115",
"&  c #0D1219",
"*  c #131315",
"=  c #1A1A15",
"-  c #13151A",
";  c #16191B",
":  c #1B1B1C",
">  c #1A1717",
",  c #15110B",
"<  c #221E1D",
"1  c #211B11",
"2  c #1E211F",
"3  c #23221E",
"4  c #2C251A",
"5  c #38251B",
"6  c #1C1D22",
"7  c #171B24",
"8  c #1A1D32",
"9  c #211E23",
"0  c #1D2223",
"q  c #1F2228",
"w  c #1C2236",
"e  c #232323",
"r  c #2A2424",
"t  c #2C2A26",
"y  c #262A2A",
"u  c #2C2C2B",
"i  c #252728",
"p  c #312C25",
"a  c #312D2B",
"s  c #2D302C",
"d  c #34322C",
"f  c #39342C",
"g  c #262A38",
"h  c #322E32",
"j  c #323233",
"k  c #3B3633",
"l  c #3B3A32",
"z  c #3C3B3B",
"x  c #34353D",
"c  c #2D3332",
"v  c #433C37",
"b  c #4D3527",
"n  c #662E17",
"m  c #47433B",
"M  c #574739",
"N  c #5E422C",
"B  c #6E4D3A",
"V  c #262D43",
"C  c #2C3444",
"Z  c #293447",
"A  c #333944",
"S  c #323B4C",
"D  c #343946",
"F  c #353C54",
"G  c #2E3855",
"H  c #403F4C",
"J  c #3C4758",
"K  c #3C414A",
"L  c #4C4645",
"P  c #4D4A43",
"I  c #46454B",
"U  c #554C46",
"Y  c #54524C",
"T  c #5B534B",
"R  c #585348",
"E  c #4A4954",
"W  c #454A59",
"Q  c #595757",
"!  c #4C5058",
"~  c #64554A",
"^  c #6A5647",
"/  c #765B47",
"(  c #615C54",
")  c #685D57",
"_  c #624D45",
"`  c #79654E",
"'  c #6B635C",
"]  c #666259",
"[  c #776959",
"{  c #736852",
"}  c #4C5466",
"|  c #565B65",
" . c #4D516B",
".. c #57616F",
"X. c #5B6376",
"o. c #6D6B63",
"O. c #666566",
"+. c #756C62",
"@. c #756A63",
"#. c #7B756C",
"$. c #777267",
"%. c #646C79",
"&. c #78787B",
"*. c #6A727A",
"=. c #5F6156",
"-. c #AA5436",
";. c #914F33",
":. c #C2603E",
">. c #88654B",
",. c #97674A",
"<. c #876B55",
"1. c #966D54",
"2. c #877358",
"3. c #9C755C",
"4. c #987658",
"5. c #A86746",
"6. c #B66746",
"7. c #A77858",
"8. c #B57C59",
"9. c #B3734C",
"0. c #837768",
"q. c #9D7761",
"w. c #857D77",
"e. c #8E746A",
"r. c #A37C62",
"t. c #A97C65",
"y. c #BB7D64",
"u. c #945848",
"i. c #C67B56",
"p. c #D67857",
"a. c #C3724E",
"s. c #E27F5E",
"d. c #C27E61",
"f. c #9D805C",
"g. c #A8825A",
"h. c #B8865B",
"j. c #99876D",
"k. c #8C8476",
"l. c #968A74",
"z. c #988974",
"x. c #8E846F",
"c. c #AA8667",
"v. c #B88866",
"b. c #BB936C",
"n. c #AA8D73",
"m. c #B48C72",
"M. c #A89172",
"N. c #B69673",
"B. c #C38B5D",
"V. c #C48559",
"C. c #CA945D",
"Z. c #DB875C",
"A. c #C18665",
"S. c #C38C63",
"D. c #CA8C66",
"F. c #CB8E6A",
"G. c #C38969",
"H. c #D58B67",
"J. c #C59265",
"K. c #CB9266",
"L. c #C59369",
"P. c #CB946B",
"I. c #CB996E",
"U. c #C5996A",
"Y. c #D19264",
"T. c #D2946C",
"R. c #D49A6C",
"E. c #DB9D6D",
"W. c #DB946A",
"Q. c #C89973",
"!. c #D49B73",
"~. c #D89A76",
"^. c #E88966",
"/. c #E5966E",
"(. c #E79B73",
"). c #F79771",
"_. c #DCA578",
"`. c #C0A675",
"'. c #E5A677",
"]. c #F4A77C",
"[. c #E6A873",
"{. c #E1815B",
"}. c #5B6989",
"|. c #666D84",
" X c #6A7386",
".X c #737C8C",
"XX c #777882",
"oX c #757D91",
"OX c #6E7FA8",
"+X c #7B8498",
"@X c #78808F",
"#X c #7A8AAB",
"$X c #888887",
"%X c #98938D",
"&X c #858B9A",
"*X c #969796",
"=X c #8F908E",
"-X c #A4988B",
";X c #A49D97",
":X c #B2A699",
">X c #8B95A7",
",X c #959EB2",
"<X c #8F95A7",
"1X c #9CA5B8",
"2X c #9EA3A1",
"3X c #A9A8A6",
"4X c #B5ACA7",
"5X c #B6B2A9",
"6X c #A3AABE",
"7X c #B4B4B4",
"8X c #BBB9B4",
"9X c #BCBCBB",
"0X c #B8B6B4",
"qX c #AEB3B1",
"wX c #DCA785",
"eX c #CCAF99",
"rX c #E3AB88",
"tX c #EAB48B",
"yX c #E9BA98",
"uX c #F2AB82",
"iX c #C3BBB3",
"pX c #C3BBB9",
"aX c #CDB9A8",
"sX c #B9C1B9",
"dX c #C3C1BD",
"fX c #C9C4BE",
"gX c #D5C1AB",
"hX c #ACB7C9",
"jX c #B3BAC8",
"kX c #A6B3CB",
"lX c #BEC1C4",
"zX c #BAC4DB",
"xX c #C1C1C1",
"cX c #C0C1C1",
"vX c #C2C2C2",
"bX c #C2C2C2",
"nX c #C9C8C7",
"mX c #C9C9C9",
"MX c #C6CAD5",
"NX c #D5DDE9",
/* pixels */
"xXxXxXxXxXxXxXxXxXxXxXxXxXxXlXvXnXvXvXmXnXxXnX0X4X0X7X5XiXpXvXvXlXvXlXvXdXlXlXdXlXlXdXlXxXxXxXxXxXxX",
"xXxXxXxXxXxXxXxXxXxXxXxXxXxXvXvX=Xk.4X%X) $X$XQ Q %X:X;X%X-X-X4X7X9XvXvXvXvXdXlXdXlXvXdXxXxXxXxXxXxX",
"xXxXxXxXxXxXxXxXxXxXxXlXxXvXvX9X] m P U v u ; @ 3 m L O.( f l ( =.] =X3X8XdXmXmXlXcXlXdXxXxXxXxXxXxX",
"xXxXxXxXxXxXxXxXxXxXvXvXnXvX;XT l p f r - $ $ - * # ; y 6 > ; 3 4 f p 4 l ' *X5XnXnXlXvXxXxXxXxXxXxX",
"xXxXxXxXxXxXxXxXvXnXlX4X8X=Xm d 3 e v r : u a u > 6 i : 9 h ; X 2 s l d 3 o X U ;XdXdXdXdXxXxXxXxXxX",
"xXxXxXxXxXxXjXnX8X%X+.U ( d @ 7 * $ : l l d p a 9 9 a 9 e t 1 : y y e s L x j d p / dXdXxXxXxXxXxXxX",
"xXxXxXxXxXvXdX%X] M v d p * + & - & - e 3 < : - 6 6 6 6 @ . + * = 2 ; , i s i j = 4 x.8XvXxXxXxXxXxX",
"xXxXlXdXvXqXl.v p f < - 6 : @ - 0 6 z e @ 9 i ; 7 y c 7 + & * : 2 : > 2 % % X : r 3 3 ] fXvXxXxXxXxX",
"xXxXlXdX8X' v l f r @ X * @ 0 j ; & 3 > $ u j @ # + @ # % q ; * t 0 X ; y * . = 3 u : X T sXnXlXxXxX",
"xXxXxX3X( 3 * a v e e e - @ y y & e r # ; j 0 @ :   # @ - : o X s t ; o ; y : * X 2 2 , X { fXlXxXxX",
"lXvXvXk.X - : 3 6 * ; i 6 @ * @ @ d t @ $ > * e r e & # + 0 % . X * 2 2 . > 0 ; - X * = p l.fXdXxXxX",
"xXvX9XP @ h c y : 0 e - - 6 ; $ r d : # @ @ ; r d i & o   ; & o . . X q % o 2 2 0 @ o o m dXnXlXxXxX",
"xXxXdX*XQ f 3 > 9 j u * * ; & : e r % + # @ X * 3 = . X + X @ o ; : X = o o < a > - O - P 5XnXdXxXxX",
"lXnXdX$.4 3 * % ; > $ @ @ @ & @ & & - % @ @ @ 2 y % . ; & ; 7 @ > , 5 b , o 1 1 > > < < R 5XfXlXxXxX",
"xX7X&.d 3 a d ; 7 7 @ @ & - 7 +   & 0 % - y > e y + X 2 * * % X X 5 B >.5 5 N , > > < b B 5XnXxXxXxX",
"nXk.1 d v k e 0 e & - 7 - @ - @ & 0 * . - - - - +   3 3 * = * o o M 3.7.,.5.u.b b ^ t.eX-XdXlXxXxXxX",
"nX#.r a < * : e *   7 e + # @ . + 7 @ . * @ 7 7   X e , X = 0 2 4 2.N.Q.!.Q.G.v.Q.wXrXyXgXfXvXxXxXvX",
"qX) p e * : : * @ & 7 0 & X 7 ; @ + - @ @ @ # @ $ * > < u d v U $.N.Q.!.~.!.Q.~.rXrXwXyXaXdXxXxXxXlX",
"mX&.< r < < 2 ; - ; & 6 6   7 6 * % ; @   # # $ < < v U R T ] #.M.b.K.P.!.T.T.T.R.wXwX-X:X9XxXxXxXxX",
"9Xk.a f a e = > 0 ; o @ & X   @ & + & * * : u r a P ) +.#.$.x.x.M.L.K.P.P.T.F.H.T.F.m.` m 3XnXxXxXxX",
"=.l e e e ; % & * @ + + + & % * & % 6 a d z L Y ] [ 0.k.l.l.k.l.M.b.K.Y.T.T.F.K.A.r.j.` v 3XnXlXxXxX",
"o.l i : & & - % + + + + + & ; = : u z L P ! ) $.#.$.0.x.l.l.x.l.l.b.K.Y.H.T.W.D.y.t.m.Q.m.7XvXxXxXxX",
"qXo.3 * ; - & - @ & 7 & & * = : j E Y Q Q <.d.p.p.v.j.j.l.l.l.j.j.N.R.T.R.T.Y.U.A.8.t.q.q.5XdXxXxXxX",
"w.L 3 : e > - - - 7 ; 7 > e j z Y o.@.o.q.H.s.p.-.:.Y.c.M.j.j.l.M.N.Q.~.~.~.R.K.K.8./ B 3.~.aX9XxXxX",
"v 3 : : 2 * ; * @ & - ; r l Y ] *.#.@.0.d.).].(.a.-.Z.E.U.b.M.M.N.N.I.!.!.E.E.Y.!.R.v.t.v.H.(.pXlXxX",
"] p ; : : ; % % @ - 0 u z L Q o.0.w.@.<.H.).].uXZ.6.a.Y.K.J.N.M.N.U._.!.R.E.E.E./.[.~.Q.~.wX/.wX9XxX",
"qXm & ; ; - % + @ 9 u l m U Q o.@.@.[ <.H.^.).].i.6.9.D.P.L.b.N.N.U.I.R.E.E.E.E.E.[.tXtXrXrX~.(.eXjX",
"nX' % - ; % @ & 7 u z L Y T ] ' ' ' @.<.p.s./.(.D.6.;.D._.R.b.m.m.b.J.F.K.R.R.W.E.E.tXyXyX(.W./.rXpX",
"mX&.* @ & % & * 6 h L T ) ' ' [ [ $.0.1.9.s.^./.i.,.n 5.[.R.L.m.n.m.v.A.B.B.Y.Y.E.[.'.yXyXW.^.uXuXaX",
"mX2XO.h > % > 6 h v T ) @.[ @.$.@.<.2.3.7.a.s.^.H.!.g.5._.P.b.n.r.t.m.V.V.V.B.Y.Y.E.[.yXwX6.a.6.i.eX",
"vXcX7X*Xo.Y L z m U ) @.@.@.[ [ [ <.<.3.7.5.i.^./.'.tX[.K.P.b.t.c.c.c.S.B.V.C.h.V.K.R._.~.>.B u.e.pX",
"xXvXvXvX0X*X&.Q Y ~ ) ) [ [ [ [ [ <.4.7.5.5.5.V.E.[.tX'.F.G.v.r.q.7.t.v.J.B.h.V.B.B.C.I.m.U ) 0XlXvX",
"xXxXxXvXvX4X$X' T U ~ ~ ^ { { 2.x.f.f.f.g.7.5.5.6.H.'.E.B.v.c.q.q.r.t.r.c.S.S.C.h.h.C.g.{ ^ *XnXvXdX",
"xXxXxXxXvX9X=X' T U R ^ ^ ` 2.2.f.f.f.g.v.h.y.t.u.u.6.5.8.v.8.q.3.r.t.r.7.h.h.B.B.V.C.,.` l.sXvXxXxX",
"xXxXxXxXxXxX3X+.( ~ ^ ^ ` ` 4.f.c.c.c.b.b.b.A.d.y.8.7.9.8.7.q.r.q.7.q.q.1.7.7.h.B.C.h.g.`.5XsXdXxXxX",
"xXxXxXxXxXvX7Xw.) ^ / ` 2.4.f.g.c.b.b.`.b.Q.F.F.D.D.v.y.7.1.1.1.1.4.4.1.,.,.4.7.g.h.C.U.:XsXlXdXxXxX",
"xXxXxXxXxXvX9X$X{ T P ! Y R <.g.v.U.U.I.Q.I.L.P.K.F.D.d.7.>./ / >.<.>.^ U T T _ >.7.P./.:X8XdXcXxXxX",
"xXxXxXxXxXxXxXw.H D S F x Z K R g.L.U.U.I.Q.P.L.F.F.D.v.t.>./ B ^ ^ H C F F V C A ( S.Z./.:XcXcXxXxX",
"xXxXxXxXxXnX;XI C W ..|.>X%.K Z P h.J.Q.I.I.L.L.D.H.D.h.,.B B M M D D  .X. X>X..C Z ~ 9.d.5XlXdXxXxX",
"xXxXxXxXvX9X! V  XkXZ J NX&X} J Z ~ C.L.P.Q.P.P.F.D.D.t.>.B b v D C &X,X8 X.NX.X} J Z ~ 4XsXvXvXxXxX",
"xXxXdXlXnX=XZ J oXjX&X|.oXF 8 X.J A 7.J.J.J.J.P.D.D.S.g.4.` b L Z J #XzX X X@XZ w X.K J 3XlXlXcXxXxX",
"xXxXxXvX0X..w  .G  .,X,X XoX<XhX..Z { K.J.J.D.D.S.B.h.h.4.>.^ D A } V X.6X<X|.@X,XhXW A =XmXlXcXxXxX",
"xXxXlXnX3XW V .X X XoX<X+X,X6X&X .A / P.J.U.S.C.B.B.h.7.4.,.^ D S @X|.oX@X,X+X1X6X@XW A $XmXdXvXxXxX",
"xXxXlXnX3XI V 1XMXkXoX>X#X.Xg S | C { Y.J.U.B.V.V.V.h.7.4.1./ x F hXzX1XoX>X+X|.w J } A $XmXdXlXvXlX",
"xXxXxXvXxX| g ,X|.C >X>X.XhX|..X%.V >.D.C.V.i.i.i.V.8.7.1.u.>.D F 1X| G ,X+X+XhX..+X} C &XnXcXlXvXdX",
"xXxXxXvXmX*XC |.1XJ oX XV X.jXlX! g n.Q.U.S.S.A.S.S.v.7.r.1.2.' Z #X>XJ &X..Z  XzX7XK I 7XnXdXcXlXdX",
"xXxXxXxXxXvXJ V #XkX@XX.W <XjX*.g #.dXpXpXpXiXiXiX8X8XiXiX0XiX0XK G #XkX*.%.W 1XjX| g @XnXlXlXcXlXxX",
"xXxXxXxXlXlX2XZ V }.+XkXjX1XX.g D *.XXXXXX&.XX&.*.XX&.XXXXXXXXXX} V G }.#XhXhX2X} g O.cXvXdXlXdXlXpX",
"xXxXxXxXxXvX7XO.g 8 V F F g w g H H H H H H H H H H H H H H H H K A g w V F F g 8 D $XjXbXdXvXxXxXxX",
"xXxXxXxXxXxX0X&X&.O.| E E I E E E E E E E E E E E E E E E H E E E E E I E E E | O.XX*X0XvXdXvXvXxXxX"
};
